<svg width="86" height="163" viewBox="0 0 86 163" fill="none" xmlns="http://www.w3.org/2000/svg">
<path d="M43.7941 49.4924L43.7937 49.4918C43.2457 48.5533 43.0798 47.4552 43.3342 46.3866C43.5834 45.3218 44.2297 44.4179 45.1391 43.8442L45.1392 43.8441C45.77 43.4464 46.492 43.2402 47.2215 43.2402C48.6432 43.2402 49.9303 43.9844 50.6541 45.2177C50.6541 45.2178 50.6542 45.2179 50.6543 45.2181L50.223 45.4711C51.2292 47.1788 50.7121 49.4191 49.0595 50.4495L43.7941 49.4924ZM43.7941 49.4924C44.9002 51.3799 47.4668 52.039 49.3241 50.8738L43.7941 49.4924ZM35.8112 112.008V82.8612C35.8112 78.2285 39.4726 74.4363 44.0063 74.4363C48.5449 74.4363 52.2126 78.2278 52.2126 82.8612V112.008C52.2126 116.646 48.546 120.444 44.007 120.445L35.8112 112.008ZM35.8112 112.008C35.8112 116.645 39.471 120.45 44.0063 120.445L35.8112 112.008ZM63.9954 2.26416L63.998 2.26685C63.993 2.262 63.9917 2.26037 63.9954 2.26416ZM37.0998 5.16431C45.0817 0.154909 55.0783 -0.872326 64.0678 2.33879L64.0758 2.34696L64.1843 2.38614C71.2767 4.94635 77.0295 9.6928 80.8143 16.1094L80.8146 16.11C88.5686 29.2177 86.5072 45.871 75.8095 56.6089C73.9323 58.485 72.0897 59.9768 70.1702 61.1811C69.0636 61.8728 67.903 62.4708 66.7179 63.0209L66.2446 63.2406L66.4843 63.7041C68.3336 67.28 69.43 71.3176 69.43 75.6368V99.2784C69.43 108.677 64.424 116.813 57.0695 121.253L56.8279 121.399V121.681V138.093V138.402L57.1054 138.54C61.1109 140.531 63.9103 144.725 63.9103 149.612C63.9103 156.424 58.5388 161.935 51.9599 161.935H43.1238C36.5565 161.935 31.1847 156.424 31.1847 149.612C31.1847 149.279 31.2262 148.967 31.2723 148.621C31.2887 148.498 31.3058 148.37 31.3217 148.236L31.328 148.183L31.323 148.13C31.3065 147.954 31.2827 147.773 31.2605 147.604C31.2513 147.534 31.2423 147.466 31.2343 147.402C31.2055 147.171 31.1847 146.956 31.1847 146.741V120.975V120.711L30.9671 120.562C24.2759 115.982 19.8416 108.157 19.8416 99.2784V98.1901V97.6332L19.288 97.693C19.0629 97.7173 18.8574 97.7463 18.6615 97.7739C18.2847 97.8271 17.9432 97.8753 17.5654 97.8753C8.17046 97.8753 0.5 89.9972 0.5 80.2852V61.3904C0.5 51.6784 8.17046 43.8003 17.5654 43.8003C19.4835 43.8003 21.2979 44.2075 23.0433 44.8199L24.022 45.1633L23.6811 44.1837C21.5986 38.2003 21.2275 31.7269 22.7174 25.418C24.7338 16.8999 29.8389 9.70683 37.0992 5.16468L37.0998 5.16431ZM24.7501 96.183L24.4682 96.3196V96.6329V99.2784C24.4682 105.037 26.7954 110.209 30.4917 113.957L31.4986 114.978L31.3448 113.552C31.3249 113.368 31.3019 113.197 31.2799 113.034C31.233 112.685 31.1903 112.368 31.1903 112.014V92.1523V90.8098L30.3121 91.8253C28.7478 93.6341 26.8893 95.1459 24.7501 96.183ZM52.2126 124.165V123.492L51.5682 123.686C49.3312 124.361 47.0439 124.828 44.6415 124.828C41.7781 124.828 39.0653 124.23 36.4813 123.295L35.8112 123.053V123.765V138.915V139.858L36.592 139.328C38.4762 138.049 40.7177 137.296 43.1294 137.296H51.7126H52.2126V136.796V124.165ZM56.5192 114.795L56.205 116.224L57.328 115.286C61.8654 111.497 64.8147 105.761 64.8147 99.2784V75.6368C64.8147 71.7843 63.7364 68.2305 61.9417 65.1558L61.7508 64.8287L61.3842 64.9239C58.8555 65.5807 56.2731 65.9614 53.6631 65.9614C46.9367 65.9614 40.5921 63.8028 35.3298 59.9675L34.4852 59.352L34.5359 60.3958C34.5446 60.5747 34.5688 60.7469 34.5894 60.8934C34.592 60.9119 34.5945 60.9299 34.5969 60.9475C34.6199 61.1132 34.6365 61.2513 34.6365 61.3904V72.7076V73.8528L35.4764 73.0743C37.754 70.9632 40.727 69.6475 44.0063 69.6475C51.069 69.6475 56.8335 75.5578 56.8335 82.8612V112.008C56.8335 112.98 56.715 113.905 56.5192 114.795ZM67.7896 57.0847L67.791 57.0838C68.2501 56.7942 68.7044 56.4863 69.1537 56.1541L70.0059 55.524L68.9777 55.267L55.0827 51.7937L54.7221 51.7035L54.5319 52.023C53.8352 53.1931 52.9099 54.2191 51.7114 54.9694C50.3566 55.8175 48.807 56.2651 47.2327 56.2651C44.182 56.2651 41.4265 54.6721 39.8448 51.9903C38.6512 49.9539 38.289 47.5622 38.8382 45.2449L38.8385 45.2435C39.3819 42.9225 40.7756 40.9791 42.7428 39.7413C44.2521 38.8014 45.9889 38.4334 47.6936 38.5487L48.0636 38.5737L48.1949 38.2269L60.1394 6.68928L60.3393 6.16162L59.7914 6.0267C57.6836 5.5076 55.53 5.24806 53.3708 5.24806C48.4645 5.24806 43.6679 6.63531 39.4912 9.25508C33.2844 13.147 28.9235 19.2912 27.2133 26.5485L27.2133 26.5486C25.5033 33.8166 26.6356 41.3353 30.4058 47.728L30.4063 47.729C35.3896 56.1373 44.0777 61.1726 53.6687 61.1726C58.6374 61.1726 63.5238 59.7561 67.7896 57.0847ZM64.1028 16.7803L64.1042 16.781C67.1131 18.415 69.656 20.8908 71.4553 23.9298C72.0753 24.9828 73.1685 25.5654 74.2863 25.5654C74.8756 25.5654 75.4752 25.4083 76.0149 25.0655C77.575 24.0842 78.0551 21.9993 77.1112 20.4114C74.6946 16.3244 71.2683 12.995 67.2022 10.7799C65.9114 10.0737 64.3824 10.3811 63.3866 11.3527L63.3073 11.43L63.2681 11.5337L62.425 13.7624L62.3868 13.8632L62.3936 13.9708C62.4643 15.0889 63.0274 16.1919 64.1028 16.7803ZM5.12656 80.2852C5.12656 87.3319 10.6934 93.0865 17.571 93.0865C24.4487 93.0865 30.0155 87.3319 30.0155 80.2852V61.3904C30.0155 54.3437 24.4487 48.5891 17.571 48.5891C10.6934 48.5891 5.12656 54.3437 5.12656 61.3904V80.2852ZM51.9655 157.152C56.0215 157.152 59.295 153.759 59.295 149.618C59.295 145.477 56.0215 142.085 51.9655 142.085H43.1294C39.0783 142.085 35.8112 145.478 35.8112 149.618C35.8112 153.758 39.0783 157.152 43.1294 157.152H51.9655Z" fill="#F12084" stroke="#C939A9"/>
</svg>
