<svg xmlns:xlink="http://www.w3.org/1999/xlink" xmlns="http://www.w3.org/2000/svg" width="1680" height="600" viewBox="0 0 1680 600" fill="none">
<mask id="mask0" mask-type="alpha" maskUnits="userSpaceOnUse" x="0" y="0" width="1680" height="600">
<path d="M0 0H1680V600H0V0Z" fill="#C4C4C4"/>
</mask>
<g mask="url(#mask0)">
<path d="M1344.82 186.675C1194.72 136.322 1093 -133.21 1093 -133.21L1529.49 -305L1965 42.5291C1965 42.5291 1494.93 237.027 1344.82 186.675Z" fill="url(#paint0_radial)" fill-opacity="0.3"/>
<path d="M842.128 32.7896C748.86 -51.9764 556.314 54.4946 556.314 54.4946L702.527 600.166L1134.07 484.534C1134.07 484.534 1064.65 474.129 941.302 402.91C817.953 331.692 872.712 234.702 872.712 234.702C872.712 234.702 935.397 117.556 842.128 32.7896Z" fill="url(#paint1_radial)" fill-opacity="0.3"/>
<path d="M45.495 332.123C-30.6113 411.514 -174 403.795 -174 403.795V73H490C490 73 372 198 287 173C202 148 134.274 183.857 93 232C67.6122 261.613 74.4798 301.887 45.495 332.123Z" fill="url(#paint2_radial)" fill-opacity="0.5"/>
<path d="M45.495 332.123C-30.6113 411.514 -174 403.795 -174 403.795V73H490C490 73 372 198 287 173C202 148 134.274 183.857 93 232C67.6122 261.613 74.4798 301.887 45.495 332.123Z" fill="url(#paint3_radial)"/>
<path d="M1396.96 542.814C1287.51 564.013 1187 480.331 1187 480.331V641H1732V294C1732 294 1613.62 294 1536.56 370.987C1459.5 447.974 1506.41 521.614 1396.96 542.814Z" fill="url(#paint4_radial)" fill-opacity="0.3"/>
<path d="M227.358 453.753C99.1343 419.396 -37.592 460.984 -37.592 460.984L-61 548.344L459.634 687.847L476.523 624.815C476.523 624.815 355.582 488.111 227.358 453.753Z" fill="url(#paint5_radial)" fill-opacity="0.3"/>
<path d="M1180.57 259.923C1019.83 99.1793 861.799 234.639 861.799 234.639C861.799 234.639 1012.24 429.148 1055.67 441.743C1099.09 454.339 1502.54 479.375 1502.54 479.375L1493.73 340.122C1493.73 340.122 1341.32 420.666 1180.57 259.923Z" fill="url(#paint6_radial)" fill-opacity="0.35"/>
</g>
<defs>
<radialGradient id="paint0_radial" cx="0" cy="0" r="1" gradientUnits="userSpaceOnUse" gradientTransform="translate(1369.51 195.067) rotate(-63.0332) scale(287.46 532.289)">
<stop offset="0.128704" stop-color="#DBDBDB"/>
<stop offset="1" stop-color="white" stop-opacity="0"/>
</radialGradient>
<radialGradient id="paint1_radial" cx="0" cy="0" r="1" gradientUnits="userSpaceOnUse" gradientTransform="translate(866.934 257.025) rotate(153.291) scale(180.157 418.063)">
<stop stop-color="#DBDBDB"/>
<stop offset="0.0001" stop-color="#DBDBDB"/>
<stop offset="1" stop-color="white" stop-opacity="0"/>
</radialGradient>
<radialGradient id="paint2_radial" cx="0" cy="0" r="1" gradientUnits="userSpaceOnUse" gradientTransform="translate(170 172) rotate(-111.71) scale(116.245 232.181)">
<stop stop-color="#E7E7E7"/>
<stop offset="1" stop-color="white" stop-opacity="0"/>
</radialGradient>
<radialGradient id="paint3_radial" cx="0" cy="0" r="1" gradientUnits="userSpaceOnUse" gradientTransform="translate(27 325) rotate(51.4288) scale(101.045 202.7)">
<stop stop-color="#F7F7F7"/>
<stop offset="1" stop-color="white" stop-opacity="0"/>
</radialGradient>
<radialGradient id="paint4_radial" cx="0" cy="0" r="1" gradientUnits="userSpaceOnUse" gradientTransform="translate(1448.33 467.5) rotate(62.4564) scale(152.821 266.758)">
<stop offset="0.128704" stop-color="#DBDBDB"/>
<stop offset="1" stop-color="white" stop-opacity="0"/>
</radialGradient>
<radialGradient id="paint5_radial" cx="0" cy="0" r="1" gradientUnits="userSpaceOnUse" gradientTransform="translate(195.975 438.233) rotate(79.044) scale(186.92 554.221)">
<stop stop-color="#DBDBDB"/>
<stop offset="1" stop-color="white" stop-opacity="0"/>
</radialGradient>
<radialGradient id="paint6_radial" cx="0" cy="0" r="1" gradientUnits="userSpaceOnUse" gradientTransform="translate(1220.75 285.795) rotate(116.803) scale(139.156 426.065)">
<stop stop-color="#DBDBDB"/>
<stop offset="1" stop-color="white" stop-opacity="0"/>
</radialGradient>
</defs>
</svg>